<svg xmlns="http://www.w3.org/2000/svg" viewBox="0 0 512 512" role="img" aria-label="Comic Book Creator">
  <defs>
    <radialGradient id="comicIconYellow" cx="32%" cy="22%" r="82%">
      <stop offset="0" stop-color="#fff36b"/>
      <stop offset="0.5" stop-color="#ffd51a"/>
      <stop offset="1" stop-color="#eea600"/>
    </radialGradient>
  </defs>
  <rect width="512" height="512" rx="86" fill="#fff7d6"/>
  <g transform="translate(-2 -45) scale(.94)">
    <path d="M118 331C63 291 75 202 143 170c25-56 95-74 142-31 45-69 143-59 187 12 27 44 27 91 4 131 34 15 52 52 39 89-12 36-46 56-85 50-18 55-82 84-139 54-53 47-134 27-164-36-38 22-75 31-119 28 43-31 87-76 110-136z" fill="#030303"/>
    <path d="M145 310c-43-31-33-98 21-122 18-49 77-64 117-25 41-65 125-53 159 11 20 36 16 74-8 104 38 8 58 40 45 75-11 30-42 47-77 38-13 41-61 64-103 35-43 43-112 22-134-35-27 16-52 23-81 23 27-24 53-58 61-104z" fill="url(#comicIconYellow)"/>
    <g fill="#030303">
      <circle cx="171" cy="229" r="3.8" opacity="0.14"/>
      <circle cx="202" cy="229" r="4.4" opacity="0.2"/>
      <circle cx="233" cy="232" r="4.8" opacity="0.26"/>
      <circle cx="161" cy="257" r="5.4" opacity="0.26"/>
      <circle cx="192" cy="257" r="6" opacity="0.34"/>
      <circle cx="223" cy="260" r="6.2" opacity="0.42"/>
      <circle cx="254" cy="265" r="5.4" opacity="0.3"/>
      <circle cx="153" cy="287" r="7" opacity="0.5"/>
      <circle cx="184" cy="287" r="7.6" opacity="0.62"/>
      <circle cx="215" cy="290" r="7.2" opacity="0.54"/>
      <circle cx="246" cy="295" r="6" opacity="0.36"/>
      <circle cx="154" cy="319" r="8" opacity="0.74"/>
      <circle cx="185" cy="321" r="7.6" opacity="0.58"/>
      <circle cx="216" cy="325" r="6.6" opacity="0.4"/>
      <circle cx="247" cy="331" r="5.2" opacity="0.22"/>
      <circle cx="173" cy="349" r="6.4" opacity="0.44"/>
      <circle cx="203" cy="352" r="5.4" opacity="0.28"/>
      <circle cx="232" cy="357" r="4.4" opacity="0.16"/>
    </g>
    <path d="M319 153c4-13 15-19 28-15l51 17c14 4 20 16 14 30l-62 141c-6 14-18 20-32 16l-38-12c-14-4-20-16-16-29l55-148z" fill="#030303"/>
    <circle cx="282" cy="371" r="27" fill="#030303"/>
  </g>
</svg>
