<svg xmlns="http://www.w3.org/2000/svg" viewBox="0 0 64 64" role="img" aria-label="Comic Book Creator">
  <defs>
    <radialGradient id="faviconYellow" cx="32%" cy="24%" r="82%">
      <stop offset="0" stop-color="#fff36b"/>
      <stop offset="0.55" stop-color="#ffd51a"/>
      <stop offset="1" stop-color="#eea600"/>
    </radialGradient>
  </defs>
  <rect width="64" height="64" rx="12" fill="#fff7d6"/>
  <g transform="translate(1.5 -0.5) scale(.90625)">
    <path d="M14.3 42.2C8.1 38.3 8.5 29 15.4 24.4c2.2-7.2 10.4-10.5 16.4-6.1 5-8.9 18.3-8.2 23.6.5 3 4.8 3.2 10.1 1 14.7 4.5 1.8 6.6 6.7 4.9 11.1-1.6 4.2-5.7 6.6-10.1 6.1-2 5.8-8.8 9-14.6 5.5-5.5 4.9-14 3-17-3.5-4.1 2.5-8.5 3.6-13.7 3.3 4.1-3.1 7.4-7.2 8.4-13.8z" fill="#050505"/>
    <path d="M17.4 39.7c-4.9-3.1-4.2-10 1.4-13 1.7-5.8 8.6-8.1 13.1-3.8 4.4-7.8 15.3-7.1 19.2.5 2.2 4 2 8.1-.4 11.5 4 .6 6.4 4.2 5 7.8-1.2 3.4-4.6 5.2-8.2 4.6-1.4 4.5-6.6 7.1-10.9 3.9-4.3 4.5-11.5 2.8-13.7-3.2-2.8 1.7-5.9 2.6-9.4 2.6 2.5-2.3 3.8-5.7 3.9-10.9z" fill="url(#faviconYellow)"/>
    <path d="M38.2 17.4c.4-1.4 1.7-2.1 3.1-1.7l5.6 1.8c1.4.4 2 1.7 1.4 3.1L41.4 37c-.6 1.4-1.8 2.1-3.2 1.6l-4-1.3c-1.4-.4-2.1-1.7-1.7-3.1l5.7-16.8z" fill="#050505"/>
    <circle cx="35" cy="45.1" r="4" fill="#050505"/>
  </g>
</svg>
